<svg xmlns="http://www.w3.org/2000/svg" title="A person behind a computer screen, working in the field of technology." xml:space="preserve" style="fill-rule:evenodd;clip-rule:evenodd;stroke-linecap:round;stroke-linejoin:round;stroke-miterlimit:10" viewBox="0 0 52 52"><path d="M17.283 58.824s-2-13.5 10-13.5c3.192 2.128 5.926 3.599 9 3.592h-.125c3.074.007 4.708-2.164 7.9-4.292 15.571 0 11.5 14.2 11.5 14.2" style="fill:#92d3f5;fill-rule:nonzero" transform="translate(-16 -9)"/><path d="m35.537 55.498-3.239-3.932-3.239-3.932h12.956l-6.478 7.864Z" style="fill:#fff;fill-rule:nonzero" transform="translate(-16 -9)"/><path d="M26.53 44.92s-5.9 4.027-2.161 7.467h4.573l-.833 3.742 7.892 1.952.29-2.505-8.361-10.364" style="fill:#61b2e4;fill-rule:nonzero" transform="translate(-16 -9)"/><path d="m67.087 43.422-6.95 16.351h-24.99l6.95-16.351h24.99Z" style="fill:#d0cfce;fill-rule:nonzero" transform="translate(-16 -9)"/><path d="m67.303 43.422-6.95 16.351h-8.99l6.95-16.351h8.99Z" style="fill:#9b9b9a;fill-rule:nonzero" transform="translate(-16 -9)"/><path d="M26 36.581c-4 0-4-6-4-13s4-14 14-14 14 7 14 14 0 13-4 13" style="fill:#a57939;fill-rule:nonzero" transform="translate(-16 -9)"/><path d="M24.936 28.581c0 9 4.937 14 11 14 5.937 0 11.064-5 11.064-14a12.137 12.137 0 0 0-1-5c-3-3-7-8-7-8-4 3-7 6-13 7 0 0-1.064.999-1.064 6Z" style="fill:#fcea2b;fill-rule:nonzero" transform="translate(-16 -9)"/><path d="M16.917 58.919a.998.998 0 0 1-.986-.847c-.041-.269-.973-6.633 2.581-10.775 1.923-2.241 4.751-3.377 8.407-3.377.197 0 .391.058.555.168 3.163 2.108 5.675 3.418 8.405 3.424h.04a1 1 0 0 1 .002 2h-.005a.24.24 0 0 0-.038 0h-.084l-.045-.001c-3.099-.042-5.816-1.403-9.127-3.588-2.896.057-5.11.954-6.586 2.669-2.956 3.436-2.138 9.12-2.129 9.178a1 1 0 0 1-.99 1.149Z" style="fill-rule:nonzero" transform="translate(-16 -9)"/><path d="M33.996 55.283a.995.995 0 0 1-.781-.375l-7.265-9.071a.998.998 0 0 1 .155-1.405.997.997 0 0 1 1.406.155l7.264 9.071a.998.998 0 0 1-.779 1.625Z" style="fill-rule:nonzero" transform="translate(-16 -9)"/><path d="M33.007 57.355a.978.978 0 0 1-.226-.025l-4.897-1.127a1.001 1.001 0 0 1-.736-1.256l.458-1.56h-3.237c-.251 0-.492-.095-.677-.264-1.404-1.292-1.62-2.646-1.553-3.555.213-2.926 3.459-5.222 3.828-5.474a1 1 0 0 1 1.128 1.651c-.784.538-2.843 2.301-2.962 3.972-.042.592.171 1.14.65 1.67h4.159a1 1 0 0 1 .96 1.281l-.535 1.824 3.863.889a1 1 0 0 1-.223 1.974Z" style="fill-rule:nonzero" transform="translate(-16 -9)"/><path d="M35.147 59.773h24.99l6.95-16.351h-24.99l-6.95 16.351ZM24.177 59.773h10.97" style="fill:none;fill-rule:nonzero;stroke:#000;stroke-width:2px" transform="translate(-16 -9)"/><path d="M41.953 27.047a2 2 0 1 1-4.001-.001 2 2 0 0 1 4.001.001M33.953 27.047a2 2 0 1 1-4.001-.001 2 2 0 0 1 4.001.001M35.953 37.049a7.639 7.639 0 0 1-3.448-.858 1 1 0 1 1 .895-1.789 5.379 5.379 0 0 0 5.105 0 1 1 0 0 1 .895 1.789 7.638 7.638 0 0 1-3.447.858Z" style="fill-rule:nonzero" transform="translate(-16 -9)"/><path d="M26 36.581c-4 0-4-6-4-13s4-14 14-14 14 7 14 14 0 13-4 13" style="fill:none;fill-rule:nonzero;stroke:#000;stroke-width:2px;stroke-miterlimit:4" transform="translate(-16 -9)"/><path d="M24.936 28.581c0 9 4.937 14 11 14 5.937 0 11.064-5 11.064-14a12.137 12.137 0 0 0-1-5c-3-3-7-8-7-8-4 3-7 6-13 7 0 0-1.064.999-1.064 6Z" style="fill:none;fill-rule:nonzero;stroke:#000;stroke-width:2px;stroke-linecap:butt;stroke-miterlimit:4" transform="translate(-16 -9)"/><path d="M41.471 32.668h-2.008a3.823 3.823 0 0 1-3.482-2.253 3.82 3.82 0 0 1-3.48 2.253h-2.008a3.82 3.82 0 0 1-3.816-3.816v-1.238h-.693a1 1 0 0 1 0-2h1.693a1 1 0 0 1 1 1v2.238c0 1.001.814 1.816 1.816 1.816h2.008a1.817 1.817 0 0 0 1.815-1.816v-1.104a1 1 0 0 1 1-1h1.331a1 1 0 0 1 1 1v1.104c0 1.001.814 1.816 1.816 1.816h2.008a1.817 1.817 0 0 0 1.815-1.816v-2.238a1 1 0 0 1 1-1h1.157a1 1 0 1 1 0 2h-.157v1.238a3.82 3.82 0 0 1-3.815 3.816Z" style="fill-rule:nonzero" transform="translate(-16 -9)"/></svg>